# File created by Blade
# Date/Time:  Tue Jan 27 17:21:46 2015
#---------------------------------------------------------
:version 1.10
:name HOM
:units
  mass 1.0
  length 1.000000
  angle deg
:documentation
     Acclaim Skeleton File
:root
   axis xyz
   order TX TY TZ RX RY RZ
   position 0.000000 0.000000 0.000000
   orientation 0 0 0
:bonedata
   begin
      id 1
      name Spine_dum
      direction 0.000000 1.000000 0.000000
      length 7.539951
      axis 0.0 0.0 0.0 xyz
   end
   begin
      id 2
      name LeftUpLeg_dum
      direction 1.000000 0.000000 0.000000
      length 3.345476
      axis 0.0 0.0 0.0 xyz
   end
   begin
      id 3
      name RightUpLeg_dum
      direction -1.000000 0.000000 0.000000
      length 3.345476
      axis 0.0 0.0 0.0 xyz
   end
   begin
      id 4
      name Spine
      direction 0.000000 1.000000 0.000000
      length 0.000000
      axis 0.0 0.0 0.0 xyz
      dof rx ry rz
   end
   begin
      id 5
      name Spine_dum1
      direction 0.000000 1.000000 0.000000
      length 15.093809
      axis 0.0 0.0 0.0 xyz
   end
   begin
      id 6
      name Spine_dum2
      direction 0.000000 1.000000 0.000000
      length 9.738928
      axis 0.0 0.0 0.0 xyz
   end
   begin
      id 7
      name Spine_dum3
      direction 0.000000 1.000000 0.000000
      length 9.738928
      axis 0.0 0.0 0.0 xyz
   end
   begin
      id 8
      name Head
      direction 0.000000 1.000000 0.000000
      length 4.527550
      axis 0.0 0.0 0.0 xyz
      dof rx ry rz
   end
   begin
      id 9
      name LeftShoulder
      direction 1.000000 0.000000 0.000000
      length 7.084015
      axis 0.0 0.0 -90.0 xyz
      dof rx ry rz
   end
   begin
      id 10
      name LeftArm
      direction 1.000000 0.000000 0.000000
      length 10.259319
      axis 0.0 0.0 -90.0 xyz
      dof rx ry rz
   end
   begin
      id 11
      name LeftForeArm
      direction 1.000000 0.000000 0.000000
      length 9.896984
      axis 0.0 0.0 -90.0 xyz
      dof ry rz rx
   end
   begin
      id 12
      name LeftHand
      direction 0.000000 0.000000 0.000000
      length 0.000000
      axis 0.0 0.0 -90.0 xyz
      dof rx ry rz
   end
   begin
      id 13
      name LeftHand_dum1
      direction 0.000000 0.000000 0.000000
      length 0.000000
      axis 0.0 0.0 -90.0 xyz
   end
   begin
      id 14
      name LeftHand_dum2
      direction 1.000000 0.000000 0.000000
      length 3.937000
      axis 0.0 0.0 -90.0 xyz
   end
   begin
      id 15
      name LeftHandThumb1
      direction 0.000000 0.000000 1.000000
      length 3.937000
      axis 0.0 0.0 -90.0 xyz
      dof rx rz ry
   end
   begin
      id 16
      name RightShoulder
      direction -1.000000 0.000000 0.000000
      length 7.084015
      axis 0.0 0.0 90.0 xyz
      dof rx ry rz
   end
   begin
      id 17
      name RightArm
      direction -1.000000 0.000000 0.000000
      length 10.259319
      axis 0.0 0.0 90.0 xyz
      dof rx ry rz
   end
   begin
      id 18
      name RightForeArm
      direction -1.000000 0.000000 0.000000
      length 9.896984
      axis 0.0 0.0 90.0 xyz
      dof ry rz rx
   end
   begin
      id 19
      name RightHand
      direction 0.000000 0.000000 0.000000
      length 0.000000
      axis 0.0 0.0 90.0 xyz
      dof rx ry rz
   end
   begin
      id 20
      name RightHand_dum1
      direction 0.000000 0.000000 0.000000
      length 0.000000
      axis 0.0 0.0 90.0 xyz
   end
   begin
      id 21
      name RightHand_dum2
      direction -1.000000 0.000000 0.000000
      length 3.937000
      axis 0.0 0.0 90.0 xyz
   end
   begin
      id 22
      name RightHandThumb1
      direction 0.000000 0.000000 1.000000
      length 3.937000
      axis 0.0 0.0 90.0 xyz
      dof rx rz ry
   end
   begin
      id 23
      name LeftUpLeg
      direction 0.000000 -1.000000 0.000000
      length 19.114733
      axis 0.0 0.0 0.0 xyz
      dof rx ry rz
   end
   begin
      id 24
      name LeftLeg
      direction 0.000000 -1.000000 0.000000
      length 16.045604
      axis 0.0 0.0 0.0 xyz
      dof rx ry rz
   end
   begin
      id 25
      name LeftFoot
      direction 0.000000 -0.258819 0.965926
      length 5.543155
      axis 15.0 0.0 0.0 xyz
      dof rx ry rz
   end
   begin
      id 26
      name LeftToeBase
      direction 0.000000 0.000000 1.000000
      length 2.952750
      axis 0.0 0.0 0.0 xyz
      dof rx ry rz
   end
   begin
      id 27
      name RightUpLeg
      direction 0.000000 -1.000000 0.000000
      length 19.114733
      axis 0.0 0.0 0.0 xyz
      dof rx ry rz
   end
   begin
      id 28
      name RightLeg
      direction 0.000000 -1.000000 0.000000
      length 16.045604
      axis 0.0 0.0 0.0 xyz
      dof rx ry rz
   end
   begin
      id 29
      name RightFoot
      direction 0.000000 -0.258819 0.965926
      length 5.543155
      axis 15.0 0.0 0.0 xyz
      dof rx ry rz
   end
   begin
      id 30
      name RightToeBase
      direction 0.000000 0.000000 1.000000
      length 2.952750
      axis 0.0 0.0 0.0 xyz
      dof rx ry rz
   end
:hierarchy
   begin
      root Spine_dum LeftUpLeg_dum RightUpLeg_dum
      Spine_dum Spine
      LeftUpLeg_dum LeftUpLeg
      RightUpLeg_dum RightUpLeg
      Spine Spine_dum1 Spine_dum2 Spine_dum3
      Spine_dum1 Head
      Spine_dum2 LeftShoulder
      Spine_dum3 RightShoulder
      LeftShoulder LeftArm
      LeftArm LeftForeArm
      LeftForeArm LeftHand
      LeftHand LeftHand_dum1 LeftHand_dum2
      LeftHand_dum1 LeftHandThumb1
      RightShoulder RightArm
      RightArm RightForeArm
      RightForeArm RightHand
      RightHand RightHand_dum1 RightHand_dum2
      RightHand_dum1 RightHandThumb1
      LeftUpLeg LeftLeg
      LeftLeg LeftFoot
      LeftFoot LeftToeBase
      RightUpLeg RightLeg
      RightLeg RightFoot
      RightFoot RightToeBase
   end

# File created by Blade
# Date/Time:  Tue Jan 27 17:21:37 2015
# Frame Rate: 120.000 fps
#------------------------------------------------------
:FULLY-SPECIFIED
:DEGREES
864
root -3.459265 36.548808 -0.497509 0.823446 -55.058137 -2.558841
Spine 0.496959 20.320105 -1.006194
Head 10.778229 3.469091 2.517592
LeftShoulder -8.450026 -8.317297 10.734263
LeftArm -24.910364 -30.463533 -25.616743
LeftForeArm 10.760518 0.000000 69.996657
LeftHand -19.263668 -0.000000 43.713979
LeftHandThumb1 -26.253704 0.000000 33.147579
RightShoulder -3.209069 -18.054994 2.005726
RightArm 31.473175 -32.042462 47.691784
RightForeArm 171.525340 -0.000000 27.684359
RightHand 1.005332 -0.000000 -3.423482
RightHandThumb1 -24.326973 -0.000000 -32.862282
LeftUpLeg -50.255582 -6.346157 11.856011
LeftLeg 68.727279 -0.000000 -0.000000
LeftFoot 1.456559 -7.163312 -22.097561
LeftToeBase 13.962847 -0.000000 -0.000000
RightUpLeg -4.180949 -2.518605 7.436523
RightLeg 19.180810 -0.000000 -0.000000
RightFoot -16.812962 7.383943 -6.284090
RightToeBase 2.762036 -0.000000 -0.000000
865
root -3.469229 36.546366 -0.485919 0.843664 -55.150377 -2.585758
Spine 0.448415 20.338445 -1.026437
Head 10.787570 3.492400 2.513465
LeftShoulder -8.488357 -8.326315 10.753619
LeftArm -24.960133 -30.466075 -25.547013
LeftForeArm 10.782656 -0.000000 69.967101
LeftHand -19.112523 -0.000000 43.625766
LeftHandThumb1 -26.253704 0.000000 33.147579
RightShoulder -3.217465 -18.075969 2.015702
RightArm 31.536453 -32.120115 47.626957
RightForeArm 171.642170 -0.000000 27.899488
RightHand 0.884968 -0.000000 -3.409148
RightHandThumb1 -24.326973 -0.000000 -32.862282
LeftUpLeg -50.110767 -6.483332 11.920575
LeftLeg 69.082124 -0.000000 -0.000000
LeftFoot 1.497096 -7.213238 -22.082413
LeftToeBase 13.976057 -0.000000 -0.000000
RightUpLeg -4.171233 -2.539689 7.439021
RightLeg 19.221061 -0.000000 -0.000000
RightFoot -16.849203 7.448277 -6.340824
RightToeBase 2.721013 -0.000000 -0.000000
866
root -3.480389 36.543563 -0.475807 0.828222 -55.231668 -2.629669
Spine 0.486616 20.354505 -1.010611
Head 10.754321 3.515811 2.505447
LeftShoulder -8.499226 -8.359635 10.775223
LeftArm -25.036216 -30.500636 -25.497996
LeftForeArm 10.808891 -0.000000 69.968430
LeftHand -19.136604 0.000000 43.483367
LeftHandThumb1 -26.253704 0.000000 33.147579
RightShoulder -3.232688 -18.071147 2.023539
RightArm 31.600983 -32.185213 47.560012
RightForeArm 171.671628 -0.000000 28.136398
RightHand 0.960246 -0.000000 -3.431498
RightHandThumb1 -24.326973 -0.000000 -32.862282
LeftUpLeg -49.913422 -6.596791 11.960353
LeftLeg 69.403124 -0.000000 -0.000000
LeftFoot 1.594877 -7.269325 -21.818226
LeftToeBase 13.476299 -0.000000 -0.000000
RightUpLeg -4.111324 -2.544642 7.453929
RightLeg 19.258644 -0.000000 -0.000000
RightFoot -16.876603 7.485493 -6.417116
RightToeBase 2.669812 -0.000000 -0.000000
867
root -3.489153 36.541148 -0.467215 0.859835 -55.311348 -2.661956
Spine 0.439979 20.366327 -1.025702
Head 10.762231 3.527614 2.486341
LeftShoulder -8.517878 -8.348413 10.783374
LeftArm -25.066779 -30.557037 -25.446337
LeftForeArm 10.816240 -0.000000 69.931794
LeftHand -19.055583 -0.000000 43.456346
LeftHandThumb1 -26.253704 0.000000 33.147579
RightShoulder -3.246939 -18.093181 2.036521
RightArm 31.662673 -32.223490 47.515685
RightForeArm 171.621688 0.000000 28.341585
RightHand 0.898815 -0.000000 -3.291783
RightHandThumb1 -24.326973 -0.000000 -32.862282
LeftUpLeg -49.770446 -6.698527 12.009436
LeftLeg 69.717925 -0.000000 -0.000000
LeftFoot 1.660900 -7.297056 -21.773647
LeftToeBase 13.555220 -0.000000 -0.000000
RightUpLeg -4.109503 -2.613466 7.459348
RightLeg 19.285598 -0.000000 -0.000000
RightFoot -16.902655 7.585552 -6.524240
RightToeBase 2.642218 -0.000000 -0.000000
